<svg xmlns="http://www.w3.org/2000/svg" version="1.1" xmlns:xlink="http://www.w3.org/1999/xlink" xmlns:svgjs="http://svgjs.dev/svgjs" width="1440" height="560" preserveAspectRatio="none" viewBox="0 0 1440 560"><g mask="url(&quot;#SvgjsMask1000&quot;)" fill="none"><rect width="1440" height="560" x="0" y="0" fill="#0e2a47"></rect><g mask="url(&quot;#SvgjsMask1001&quot;)"><path d="M362.5 262.5L387.5 287.5L412.5 287.5M237.5 262.5L262.5 287.5L287.5 287.5L312.5 287.5M137.5 287.5L162.5 287.5L187.5 287.5M12.5 312.5L37.5 287.5L62.5 287.5L87.5 287.5L112.5 287.5M-12.5 287.5L12.5 312.5L37.5 312.5L62.5 312.5L87.5 312.5L112.5 312.5L137.5 287.5L162.5 262.5L187.5 262.5L212.5 262.5L237.5 262.5L262.5 262.5L287.5 262.5L312.5 262.5L337.5 262.5L362.5 262.5L387.5 262.5L412.5 262.5L437.5 262.5" stroke="#dd1133" stroke-width="4.17"></path><path d="M431.25 262.5 a6.25 6.25 0 1 0 12.5 0 a6.25 6.25 0 1 0 -12.5 0zM406.25 287.5 a6.25 6.25 0 1 0 12.5 0 a6.25 6.25 0 1 0 -12.5 0zM306.25 287.5 a6.25 6.25 0 1 0 12.5 0 a6.25 6.25 0 1 0 -12.5 0zM181.25 287.5 a6.25 6.25 0 1 0 12.5 0 a6.25 6.25 0 1 0 -12.5 0zM106.25 287.5 a6.25 6.25 0 1 0 12.5 0 a6.25 6.25 0 1 0 -12.5 0z" fill="#dd1133"></path><path d="M62.5 262.5L87.5 262.5L112.5 262.5L137.5 262.5M112.5 237.5L137.5 212.5L162.5 212.5L187.5 212.5L212.5 212.5L237.5 212.5M387.5 237.5L412.5 212.5L437.5 212.5M337.5 237.5L362.5 212.5M462.5 212.5L487.5 237.5L512.5 237.5L537.5 237.5L562.5 237.5M-12.5 262.5L12.5 262.5L37.5 262.5L62.5 262.5L87.5 237.5L112.5 237.5L137.5 237.5L162.5 237.5L187.5 237.5L212.5 237.5L237.5 237.5L262.5 237.5L287.5 237.5L312.5 237.5L337.5 237.5L362.5 237.5L387.5 237.5L412.5 237.5L437.5 237.5L462.5 212.5L487.5 212.5" stroke="#dd1133" stroke-width="4.17"></path><path d="M481.25 212.5 a6.25 6.25 0 1 0 12.5 0 a6.25 6.25 0 1 0 -12.5 0zM131.25 262.5 a6.25 6.25 0 1 0 12.5 0 a6.25 6.25 0 1 0 -12.5 0zM231.25 212.5 a6.25 6.25 0 1 0 12.5 0 a6.25 6.25 0 1 0 -12.5 0zM431.25 212.5 a6.25 6.25 0 1 0 12.5 0 a6.25 6.25 0 1 0 -12.5 0zM356.25 212.5 a6.25 6.25 0 1 0 12.5 0 a6.25 6.25 0 1 0 -12.5 0zM556.25 237.5 a6.25 6.25 0 1 0 12.5 0 a6.25 6.25 0 1 0 -12.5 0z" fill="#dd1133"></path><path d="M587.5 337.5L612.5 312.5L637.5 312.5L662.5 312.5M462.5 337.5L487.5 362.5L512.5 362.5L537.5 362.5L562.5 362.5L587.5 362.5M212.5 337.5L237.5 362.5M562.5 337.5L587.5 312.5L612.5 287.5L637.5 287.5M112.5 337.5L137.5 362.5M487.5 337.5L512.5 312.5L537.5 312.5M-12.5 312.5L12.5 337.5L37.5 337.5L62.5 337.5L87.5 337.5L112.5 337.5L137.5 337.5L162.5 337.5L187.5 337.5L212.5 337.5L237.5 337.5L262.5 337.5L287.5 337.5L312.5 337.5L337.5 337.5L362.5 337.5L387.5 337.5L412.5 337.5L437.5 337.5L462.5 337.5L487.5 337.5L512.5 337.5L537.5 337.5L562.5 337.5L587.5 337.5L612.5 337.5" stroke="#3a7cc3" stroke-width="4.17"></path><path d="M606.25 337.5 a6.25 6.25 0 1 0 12.5 0 a6.25 6.25 0 1 0 -12.5 0zM656.25 312.5 a6.25 6.25 0 1 0 12.5 0 a6.25 6.25 0 1 0 -12.5 0zM581.25 362.5 a6.25 6.25 0 1 0 12.5 0 a6.25 6.25 0 1 0 -12.5 0zM231.25 362.5 a6.25 6.25 0 1 0 12.5 0 a6.25 6.25 0 1 0 -12.5 0zM631.25 287.5 a6.25 6.25 0 1 0 12.5 0 a6.25 6.25 0 1 0 -12.5 0zM131.25 362.5 a6.25 6.25 0 1 0 12.5 0 a6.25 6.25 0 1 0 -12.5 0zM531.25 312.5 a6.25 6.25 0 1 0 12.5 0 a6.25 6.25 0 1 0 -12.5 0z" fill="#3a7cc3"></path><path d="M-12.5 237.5L12.5 237.5L37.5 237.5L62.5 237.5L87.5 212.5" stroke="#3a7cc3" stroke-width="4.17"></path><path d="M81.25 212.5 a6.25 6.25 0 1 0 12.5 0 a6.25 6.25 0 1 0 -12.5 0z" fill="#3a7cc3"></path><path d="M-12.5 337.5L12.5 362.5L37.5 362.5L62.5 362.5L87.5 362.5" stroke="#3a7cc3" stroke-width="4.17"></path><path d="M81.25 362.5 a6.25 6.25 0 1 0 12.5 0 a6.25 6.25 0 1 0 -12.5 0z" fill="#3a7cc3"></path><path d="M437.5 187.5L462.5 187.5L487.5 187.5L512.5 162.5M162.5 162.5L187.5 187.5L212.5 187.5L237.5 187.5L262.5 187.5L287.5 187.5L312.5 187.5M412.5 187.5L437.5 162.5L462.5 137.5M537.5 137.5L562.5 162.5L587.5 162.5L612.5 162.5L637.5 187.5M337.5 162.5L362.5 162.5L387.5 162.5M137.5 162.5L162.5 187.5M-12.5 212.5L12.5 212.5L37.5 212.5L62.5 212.5L87.5 187.5L112.5 162.5L137.5 162.5L162.5 162.5L187.5 162.5L212.5 162.5L237.5 162.5L262.5 162.5L287.5 162.5L312.5 162.5L337.5 162.5L362.5 187.5L387.5 187.5L412.5 187.5L437.5 187.5L462.5 162.5L487.5 137.5L512.5 137.5L537.5 137.5L562.5 137.5" stroke="#3a7cc3" stroke-width="4.17"></path><path d="M556.25 137.5 a6.25 6.25 0 1 0 12.5 0 a6.25 6.25 0 1 0 -12.5 0zM506.25 162.5 a6.25 6.25 0 1 0 12.5 0 a6.25 6.25 0 1 0 -12.5 0zM306.25 187.5 a6.25 6.25 0 1 0 12.5 0 a6.25 6.25 0 1 0 -12.5 0zM456.25 137.5 a6.25 6.25 0 1 0 12.5 0 a6.25 6.25 0 1 0 -12.5 0zM631.25 187.5 a6.25 6.25 0 1 0 12.5 0 a6.25 6.25 0 1 0 -12.5 0zM381.25 162.5 a6.25 6.25 0 1 0 12.5 0 a6.25 6.25 0 1 0 -12.5 0zM156.25 187.5 a6.25 6.25 0 1 0 12.5 0 a6.25 6.25 0 1 0 -12.5 0z" fill="#3a7cc3"></path><path d="M137.5 387.5L162.5 412.5M62.5 387.5L87.5 412.5L112.5 412.5L137.5 412.5M162.5 387.5L187.5 362.5L212.5 362.5L237.5 387.5M-12.5 362.5L12.5 387.5L37.5 387.5L62.5 387.5L87.5 387.5L112.5 387.5L137.5 387.5L162.5 387.5L187.5 387.5" stroke="#3a7cc3" stroke-width="4.17"></path><path d="M181.25 387.5 a6.25 6.25 0 1 0 12.5 0 a6.25 6.25 0 1 0 -12.5 0zM156.25 412.5 a6.25 6.25 0 1 0 12.5 0 a6.25 6.25 0 1 0 -12.5 0zM131.25 412.5 a6.25 6.25 0 1 0 12.5 0 a6.25 6.25 0 1 0 -12.5 0zM231.25 387.5 a6.25 6.25 0 1 0 12.5 0 a6.25 6.25 0 1 0 -12.5 0z" fill="#3a7cc3"></path><path d="M-12.5 187.5L12.5 187.5L37.5 187.5L62.5 187.5L87.5 162.5L112.5 137.5L137.5 137.5L162.5 137.5L187.5 137.5L212.5 137.5L237.5 137.5L262.5 137.5" stroke="#3a7cc3" stroke-width="4.17"></path><path d="M256.25 137.5 a6.25 6.25 0 1 0 12.5 0 a6.25 6.25 0 1 0 -12.5 0z" fill="#3a7cc3"></path><path d="M112.5 437.5L137.5 462.5L162.5 462.5L187.5 462.5M12.5 412.5L37.5 437.5L62.5 462.5L87.5 462.5M162.5 437.5L187.5 437.5M-12.5 387.5L12.5 412.5L37.5 412.5L62.5 437.5L87.5 437.5L112.5 437.5L137.5 437.5L162.5 437.5L187.5 412.5L212.5 412.5L237.5 412.5L262.5 412.5" stroke="#dd1133" stroke-width="4.17"></path><path d="M256.25 412.5 a6.25 6.25 0 1 0 12.5 0 a6.25 6.25 0 1 0 -12.5 0zM181.25 462.5 a6.25 6.25 0 1 0 12.5 0 a6.25 6.25 0 1 0 -12.5 0zM81.25 462.5 a6.25 6.25 0 1 0 12.5 0 a6.25 6.25 0 1 0 -12.5 0zM181.25 437.5 a6.25 6.25 0 1 0 12.5 0 a6.25 6.25 0 1 0 -12.5 0z" fill="#dd1133"></path><path d="M487.5 62.5L512.5 87.5L537.5 87.5M412.5 62.5L437.5 87.5M562.5 62.5L587.5 87.5L612.5 87.5M237.5 112.5L262.5 87.5L287.5 62.5L312.5 62.5M212.5 112.5L237.5 87.5M337.5 62.5L362.5 87.5M112.5 112.5L137.5 87.5M-12.5 162.5L12.5 162.5L37.5 162.5L62.5 162.5L87.5 137.5L112.5 112.5L137.5 112.5L162.5 112.5L187.5 112.5L212.5 112.5L237.5 112.5L262.5 112.5L287.5 87.5L312.5 87.5L337.5 62.5L362.5 62.5L387.5 62.5L412.5 62.5L437.5 62.5L462.5 62.5L487.5 62.5L512.5 62.5L537.5 62.5L562.5 62.5L587.5 62.5L612.5 62.5L637.5 62.5L662.5 62.5" stroke="#3a7cc3" stroke-width="4.17"></path><path d="M656.25 62.5 a6.25 6.25 0 1 0 12.5 0 a6.25 6.25 0 1 0 -12.5 0zM531.25 87.5 a6.25 6.25 0 1 0 12.5 0 a6.25 6.25 0 1 0 -12.5 0zM431.25 87.5 a6.25 6.25 0 1 0 12.5 0 a6.25 6.25 0 1 0 -12.5 0zM606.25 87.5 a6.25 6.25 0 1 0 12.5 0 a6.25 6.25 0 1 0 -12.5 0zM306.25 62.5 a6.25 6.25 0 1 0 12.5 0 a6.25 6.25 0 1 0 -12.5 0zM231.25 87.5 a6.25 6.25 0 1 0 12.5 0 a6.25 6.25 0 1 0 -12.5 0zM356.25 87.5 a6.25 6.25 0 1 0 12.5 0 a6.25 6.25 0 1 0 -12.5 0zM131.25 87.5 a6.25 6.25 0 1 0 12.5 0 a6.25 6.25 0 1 0 -12.5 0z" fill="#3a7cc3"></path></g></g><defs><mask id="SvgjsMask1000"><rect width="1440" height="560" fill="#ffffff"></rect></mask><mask id="SvgjsMask1001"><rect width="1440" height="560" fill="white"></rect><path d="M434.37 262.5 a3.13 3.13 0 1 0 6.26 0 a3.13 3.13 0 1 0 -6.26 0zM409.37 287.5 a3.13 3.13 0 1 0 6.26 0 a3.13 3.13 0 1 0 -6.26 0zM309.37 287.5 a3.13 3.13 0 1 0 6.26 0 a3.13 3.13 0 1 0 -6.26 0zM184.37 287.5 a3.13 3.13 0 1 0 6.26 0 a3.13 3.13 0 1 0 -6.26 0zM109.37 287.5 a3.13 3.13 0 1 0 6.26 0 a3.13 3.13 0 1 0 -6.26 0z" fill="black"></path><path d="M484.37 212.5 a3.13 3.13 0 1 0 6.26 0 a3.13 3.13 0 1 0 -6.26 0zM134.37 262.5 a3.13 3.13 0 1 0 6.26 0 a3.13 3.13 0 1 0 -6.26 0zM234.37 212.5 a3.13 3.13 0 1 0 6.26 0 a3.13 3.13 0 1 0 -6.26 0zM434.37 212.5 a3.13 3.13 0 1 0 6.26 0 a3.13 3.13 0 1 0 -6.26 0zM359.37 212.5 a3.13 3.13 0 1 0 6.26 0 a3.13 3.13 0 1 0 -6.26 0zM559.37 237.5 a3.13 3.13 0 1 0 6.26 0 a3.13 3.13 0 1 0 -6.26 0z" fill="black"></path><path d="M609.37 337.5 a3.13 3.13 0 1 0 6.26 0 a3.13 3.13 0 1 0 -6.26 0zM659.37 312.5 a3.13 3.13 0 1 0 6.26 0 a3.13 3.13 0 1 0 -6.26 0zM584.37 362.5 a3.13 3.13 0 1 0 6.26 0 a3.13 3.13 0 1 0 -6.26 0zM234.37 362.5 a3.13 3.13 0 1 0 6.26 0 a3.13 3.13 0 1 0 -6.26 0zM634.37 287.5 a3.13 3.13 0 1 0 6.26 0 a3.13 3.13 0 1 0 -6.26 0zM134.37 362.5 a3.13 3.13 0 1 0 6.26 0 a3.13 3.13 0 1 0 -6.26 0zM534.37 312.5 a3.13 3.13 0 1 0 6.26 0 a3.13 3.13 0 1 0 -6.26 0z" fill="black"></path><path d="M84.37 212.5 a3.13 3.13 0 1 0 6.26 0 a3.13 3.13 0 1 0 -6.26 0z" fill="black"></path><path d="M84.37 362.5 a3.13 3.13 0 1 0 6.26 0 a3.13 3.13 0 1 0 -6.26 0z" fill="black"></path><path d="M559.37 137.5 a3.13 3.13 0 1 0 6.26 0 a3.13 3.13 0 1 0 -6.26 0zM509.37 162.5 a3.13 3.13 0 1 0 6.26 0 a3.13 3.13 0 1 0 -6.26 0zM309.37 187.5 a3.13 3.13 0 1 0 6.26 0 a3.13 3.13 0 1 0 -6.26 0zM459.37 137.5 a3.13 3.13 0 1 0 6.26 0 a3.13 3.13 0 1 0 -6.26 0zM634.37 187.5 a3.13 3.13 0 1 0 6.26 0 a3.13 3.13 0 1 0 -6.26 0zM384.37 162.5 a3.13 3.13 0 1 0 6.26 0 a3.13 3.13 0 1 0 -6.26 0zM159.37 187.5 a3.13 3.13 0 1 0 6.26 0 a3.13 3.13 0 1 0 -6.26 0z" fill="black"></path><path d="M184.37 387.5 a3.13 3.13 0 1 0 6.26 0 a3.13 3.13 0 1 0 -6.26 0zM159.37 412.5 a3.13 3.13 0 1 0 6.26 0 a3.13 3.13 0 1 0 -6.26 0zM134.37 412.5 a3.13 3.13 0 1 0 6.26 0 a3.13 3.13 0 1 0 -6.26 0zM234.37 387.5 a3.13 3.13 0 1 0 6.26 0 a3.13 3.13 0 1 0 -6.26 0z" fill="black"></path><path d="M259.37 137.5 a3.13 3.13 0 1 0 6.26 0 a3.13 3.13 0 1 0 -6.26 0z" fill="black"></path><path d="M259.37 412.5 a3.13 3.13 0 1 0 6.26 0 a3.13 3.13 0 1 0 -6.26 0zM184.37 462.5 a3.13 3.13 0 1 0 6.26 0 a3.13 3.13 0 1 0 -6.26 0zM84.37 462.5 a3.13 3.13 0 1 0 6.26 0 a3.13 3.13 0 1 0 -6.26 0zM184.37 437.5 a3.13 3.13 0 1 0 6.26 0 a3.13 3.13 0 1 0 -6.26 0z" fill="black"></path><path d="M659.37 62.5 a3.13 3.13 0 1 0 6.26 0 a3.13 3.13 0 1 0 -6.26 0zM534.37 87.5 a3.13 3.13 0 1 0 6.26 0 a3.13 3.13 0 1 0 -6.26 0zM434.37 87.5 a3.13 3.13 0 1 0 6.26 0 a3.13 3.13 0 1 0 -6.26 0zM609.37 87.5 a3.13 3.13 0 1 0 6.26 0 a3.13 3.13 0 1 0 -6.26 0zM309.37 62.5 a3.13 3.13 0 1 0 6.26 0 a3.13 3.13 0 1 0 -6.26 0zM234.37 87.5 a3.13 3.13 0 1 0 6.26 0 a3.13 3.13 0 1 0 -6.26 0zM359.37 87.5 a3.13 3.13 0 1 0 6.26 0 a3.13 3.13 0 1 0 -6.26 0zM134.37 87.5 a3.13 3.13 0 1 0 6.26 0 a3.13 3.13 0 1 0 -6.26 0z" fill="black"></path></mask></defs></svg>