<svg xmlns="http://www.w3.org/2000/svg" version="1.1" xmlns:xlink="http://www.w3.org/1999/xlink" xmlns:svgjs="http://svgjs.dev/svgjs" width="1439" height="556" preserveAspectRatio="none" viewBox="0 0 1439 556"><g mask="url(&quot;#SvgjsMask1409&quot;)" fill="none"><rect width="1439" height="556" x="0" y="0" fill="url(&quot;#SvgjsLinearGradient1410&quot;)"></rect><path d="M1439 0L789.85 0L1439 128.93z" fill="rgba(255, 255, 255, .1)"></path><path d="M789.85 0L1439 128.93L1439 192.12L571.84 0z" fill="rgba(255, 255, 255, .075)"></path><path d="M571.84 0L1439 192.12L1439 388.19L378.69000000000005 0z" fill="rgba(255, 255, 255, .05)"></path><path d="M378.69000000000005 0L1439 388.19L1439 405.86L361.39000000000004 0z" fill="rgba(255, 255, 255, .025)"></path><path d="M0 556L327.29 556L0 364.13z" fill="rgba(0, 0, 0, .1)"></path><path d="M0 364.13L327.29 556L941.4100000000001 556L0 227.92z" fill="rgba(0, 0, 0, .075)"></path><path d="M0 227.91999999999996L941.4100000000001 556L1077.0900000000001 556L0 138.02999999999997z" fill="rgba(0, 0, 0, .05)"></path><path d="M0 138.02999999999997L1077.0900000000001 556L1283.5500000000002 556L0 43.479999999999976z" fill="rgba(0, 0, 0, .025)"></path></g><defs><mask id="SvgjsMask1409"><rect width="1439" height="556" fill="#ffffff"></rect></mask><linearGradient x1="15.34%" y1="-39.7%" x2="84.66%" y2="139.7%" gradientUnits="userSpaceOnUse" id="SvgjsLinearGradient1410"><stop stop-color="#0e2a47" offset="0"></stop><stop stop-color="rgba(101, 123, 152, 1)" offset="1"></stop></linearGradient></defs></svg>