<svg xmlns="http://www.w3.org/2000/svg" version="1.1" xmlns:xlink="http://www.w3.org/1999/xlink" xmlns:svgjs="http://svgjs.dev/svgjs" width="1441" height="562" preserveAspectRatio="none" viewBox="0 0 1441 562"><g mask="url(&quot;#SvgjsMask1169&quot;)" fill="none"><rect width="1441" height="562" x="0" y="0" fill="url(&quot;#SvgjsLinearGradient1170&quot;)"></rect><path d="M1441 0L792.4 0L1441 63.79z" fill="rgba(255, 255, 255, .1)"></path><path d="M792.4 0L1441 63.79L1441 120.07L573.16 0z" fill="rgba(255, 255, 255, .075)"></path><path d="M573.16 0L1441 120.07L1441 183.81L374.87 0z" fill="rgba(255, 255, 255, .05)"></path><path d="M374.8699999999999 0L1441 183.81L1441 358.07L352.89999999999986 0z" fill="rgba(255, 255, 255, .025)"></path><path d="M0 562L650.23 562L0 487.01z" fill="rgba(0, 0, 0, .1)"></path><path d="M0 487.01L650.23 562L662.64 562L0 426.26z" fill="rgba(0, 0, 0, .075)"></path><path d="M0 426.26L662.64 562L896.77 562L0 233.39z" fill="rgba(0, 0, 0, .05)"></path><path d="M0 233.39L896.77 562L1082.1 562L0 165.06z" fill="rgba(0, 0, 0, .025)"></path></g><defs><mask id="SvgjsMask1169"><rect width="1441" height="562" fill="#ffffff"></rect></mask><linearGradient x1="15.25%" y1="-39.1%" x2="84.75%" y2="139.1%" gradientUnits="userSpaceOnUse" id="SvgjsLinearGradient1170"><stop stop-color="#0e2a47" offset="0"></stop><stop stop-color="rgba(61, 108, 168, 1)" offset="1"></stop></linearGradient></defs></svg>